<mxfile host="app.diagrams.net" agent="Mozilla/5.0 (Windows NT 10.0; Win64; x64) AppleWebKit/537.36 (KHTML, like Gecko) Chrome/131.0.0.0 Safari/537.36 Edg/131.0.0.0" version="25.0.1">
  <diagram name="Page-1" id="B9-37_lSc0r2LmjtbMLK">
    <mxGraphModel dx="1346" dy="1369" grid="1" gridSize="10" guides="1" tooltips="1" connect="1" arrows="1" fold="1" page="1" pageScale="1" pageWidth="850" pageHeight="1100" math="0" shadow="0">
      <root>
        <mxCell id="0" />
        <mxCell id="1" parent="0" />
        <mxCell id="9SEU7BsiJZxHdzQadS-c-2" value="" style="edgeStyle=orthogonalEdgeStyle;rounded=0;orthogonalLoop=1;jettySize=auto;html=1;" edge="1" parent="1" source="9SEU7BsiJZxHdzQadS-c-3">
          <mxGeometry relative="1" as="geometry">
            <mxPoint x="-474.9655172413793" y="-880" as="targetPoint" />
          </mxGeometry>
        </mxCell>
        <mxCell id="9SEU7BsiJZxHdzQadS-c-3" value="&lt;font data-font-src=&quot;https://fonts.googleapis.com/css?family=Sarabun&quot; face=&quot;Sarabun&quot;&gt;Start&lt;/font&gt;" style="ellipse;whiteSpace=wrap;html=1;" vertex="1" parent="1">
          <mxGeometry x="-540.0000000000001" y="-940" width="130" height="30" as="geometry" />
        </mxCell>
        <mxCell id="9SEU7BsiJZxHdzQadS-c-4" value="" style="edgeStyle=orthogonalEdgeStyle;rounded=0;orthogonalLoop=1;jettySize=auto;html=1;" edge="1" parent="1" target="9SEU7BsiJZxHdzQadS-c-6">
          <mxGeometry relative="1" as="geometry">
            <mxPoint x="-473.9655172413793" y="-840" as="sourcePoint" />
          </mxGeometry>
        </mxCell>
        <mxCell id="9SEU7BsiJZxHdzQadS-c-5" value="" style="edgeStyle=orthogonalEdgeStyle;rounded=0;orthogonalLoop=1;jettySize=auto;html=1;entryX=0.5;entryY=0;entryDx=0;entryDy=0;" edge="1" parent="1" source="9SEU7BsiJZxHdzQadS-c-6" target="9SEU7BsiJZxHdzQadS-c-21">
          <mxGeometry relative="1" as="geometry">
            <mxPoint x="-474" y="-730" as="targetPoint" />
          </mxGeometry>
        </mxCell>
        <mxCell id="9SEU7BsiJZxHdzQadS-c-6" value="กำหนดตัวแปร n" style="rounded=0;whiteSpace=wrap;html=1;" vertex="1" parent="1">
          <mxGeometry x="-539.0000000000001" y="-810" width="130" height="40" as="geometry" />
        </mxCell>
        <mxCell id="9SEU7BsiJZxHdzQadS-c-7" value="" style="edgeStyle=orthogonalEdgeStyle;rounded=0;orthogonalLoop=1;jettySize=auto;html=1;" edge="1" parent="1" source="9SEU7BsiJZxHdzQadS-c-8" target="9SEU7BsiJZxHdzQadS-c-13">
          <mxGeometry relative="1" as="geometry" />
        </mxCell>
        <mxCell id="9SEU7BsiJZxHdzQadS-c-8" value="กรอกตัวแปร input" style="rounded=0;whiteSpace=wrap;html=1;shape=parallelogram;perimeter=parallelogramPerimeter;fixedSize=1;" vertex="1" parent="1">
          <mxGeometry x="-539.0000000000001" y="-610" width="130" height="40" as="geometry" />
        </mxCell>
        <mxCell id="9SEU7BsiJZxHdzQadS-c-9" value="" style="edgeStyle=orthogonalEdgeStyle;rounded=0;orthogonalLoop=1;jettySize=auto;html=1;" edge="1" parent="1" source="9SEU7BsiJZxHdzQadS-c-10" target="9SEU7BsiJZxHdzQadS-c-8">
          <mxGeometry relative="1" as="geometry" />
        </mxCell>
        <mxCell id="9SEU7BsiJZxHdzQadS-c-10" value="" style="ellipse;whiteSpace=wrap;html=1;aspect=fixed;" vertex="1" parent="1">
          <mxGeometry x="-484" y="-670" width="20" height="20" as="geometry" />
        </mxCell>
        <mxCell id="9SEU7BsiJZxHdzQadS-c-11" style="edgeStyle=orthogonalEdgeStyle;rounded=0;orthogonalLoop=1;jettySize=auto;html=1;entryX=0;entryY=0.5;entryDx=0;entryDy=0;" edge="1" parent="1" source="9SEU7BsiJZxHdzQadS-c-13" target="9SEU7BsiJZxHdzQadS-c-10">
          <mxGeometry relative="1" as="geometry">
            <Array as="points">
              <mxPoint x="-599" y="-490" />
              <mxPoint x="-599" y="-660" />
            </Array>
          </mxGeometry>
        </mxCell>
        <mxCell id="9SEU7BsiJZxHdzQadS-c-12" value="" style="edgeStyle=orthogonalEdgeStyle;rounded=0;orthogonalLoop=1;jettySize=auto;html=1;" edge="1" parent="1" source="9SEU7BsiJZxHdzQadS-c-13" target="9SEU7BsiJZxHdzQadS-c-25">
          <mxGeometry relative="1" as="geometry" />
        </mxCell>
        <mxCell id="9SEU7BsiJZxHdzQadS-c-13" value="กรอก -1 หรือไม่" style="rhombus;whiteSpace=wrap;html=1;" vertex="1" parent="1">
          <mxGeometry x="-538" y="-530" width="128" height="80" as="geometry" />
        </mxCell>
        <mxCell id="9SEU7BsiJZxHdzQadS-c-14" value="" style="edgeStyle=orthogonalEdgeStyle;rounded=0;orthogonalLoop=1;jettySize=auto;html=1;" edge="1" parent="1" target="9SEU7BsiJZxHdzQadS-c-23">
          <mxGeometry relative="1" as="geometry">
            <mxPoint x="-475.0000000000001" y="-370" as="sourcePoint" />
          </mxGeometry>
        </mxCell>
        <mxCell id="9SEU7BsiJZxHdzQadS-c-15" value="" style="edgeStyle=orthogonalEdgeStyle;rounded=0;orthogonalLoop=1;jettySize=auto;html=1;" edge="1" parent="1" target="9SEU7BsiJZxHdzQadS-c-16">
          <mxGeometry relative="1" as="geometry">
            <mxPoint x="-474" y="-210" as="sourcePoint" />
          </mxGeometry>
        </mxCell>
        <mxCell id="9SEU7BsiJZxHdzQadS-c-16" value="&lt;font face=&quot;Sarabun&quot;&gt;END&lt;/font&gt;" style="ellipse;whiteSpace=wrap;html=1;" vertex="1" parent="1">
          <mxGeometry x="-539.0000000000001" y="-160" width="130" height="30" as="geometry" />
        </mxCell>
        <mxCell id="9SEU7BsiJZxHdzQadS-c-17" value="F" style="text;html=1;align=center;verticalAlign=middle;resizable=0;points=[];autosize=1;strokeColor=none;fillColor=none;" vertex="1" parent="1">
          <mxGeometry x="-559" y="-520" width="30" height="30" as="geometry" />
        </mxCell>
        <mxCell id="9SEU7BsiJZxHdzQadS-c-18" value="T" style="text;html=1;align=center;verticalAlign=middle;resizable=0;points=[];autosize=1;strokeColor=none;fillColor=none;" vertex="1" parent="1">
          <mxGeometry x="-455" y="-460" width="30" height="30" as="geometry" />
        </mxCell>
        <mxCell id="9SEU7BsiJZxHdzQadS-c-19" value="กำหนดตัวแปร arr input1" style="rounded=0;whiteSpace=wrap;html=1;" vertex="1" parent="1">
          <mxGeometry x="-539.0000000000001" y="-880" width="130" height="40" as="geometry" />
        </mxCell>
        <mxCell id="9SEU7BsiJZxHdzQadS-c-20" style="edgeStyle=orthogonalEdgeStyle;rounded=0;orthogonalLoop=1;jettySize=auto;html=1;entryX=0.5;entryY=0;entryDx=0;entryDy=0;" edge="1" parent="1" source="9SEU7BsiJZxHdzQadS-c-21" target="9SEU7BsiJZxHdzQadS-c-10">
          <mxGeometry relative="1" as="geometry" />
        </mxCell>
        <mxCell id="9SEU7BsiJZxHdzQadS-c-21" value="กรอกจำนวนรอบ (n)" style="rounded=0;whiteSpace=wrap;html=1;shape=parallelogram;perimeter=parallelogramPerimeter;fixedSize=1;" vertex="1" parent="1">
          <mxGeometry x="-539.0000000000001" y="-740" width="130" height="40" as="geometry" />
        </mxCell>
        <mxCell id="9SEU7BsiJZxHdzQadS-c-22" value="" style="edgeStyle=orthogonalEdgeStyle;rounded=0;orthogonalLoop=1;jettySize=auto;html=1;" edge="1" parent="1" source="9SEU7BsiJZxHdzQadS-c-23" target="9SEU7BsiJZxHdzQadS-c-24">
          <mxGeometry relative="1" as="geometry" />
        </mxCell>
        <mxCell id="9SEU7BsiJZxHdzQadS-c-23" value="เอาค่าตัวที่ 3 มา" style="rounded=0;whiteSpace=wrap;html=1;" vertex="1" parent="1">
          <mxGeometry x="-540.0000000000001" y="-330" width="130" height="40" as="geometry" />
        </mxCell>
        <mxCell id="9SEU7BsiJZxHdzQadS-c-24" value="ปริ้นตัวที่มากสุดอันดับ 3" style="rounded=0;whiteSpace=wrap;html=1;shape=parallelogram;perimeter=parallelogramPerimeter;fixedSize=1;" vertex="1" parent="1">
          <mxGeometry x="-540.0000000000001" y="-250" width="130" height="40" as="geometry" />
        </mxCell>
        <mxCell id="9SEU7BsiJZxHdzQadS-c-25" value="เรียกจากมากไปน้อย" style="rounded=0;whiteSpace=wrap;html=1;" vertex="1" parent="1">
          <mxGeometry x="-539.0000000000001" y="-410" width="130" height="40" as="geometry" />
        </mxCell>
      </root>
    </mxGraphModel>
  </diagram>
</mxfile>
